<?xml version="1.0" encoding="utf-8"?>
<!-- Generator: Adobe Illustrator 22.1.0, SVG Export Plug-In . SVG Version: 6.00 Build 0)  -->
<svg version="1.1" id="Layer_1" xmlns="http://www.w3.org/2000/svg" xmlns:xlink="http://www.w3.org/1999/xlink" x="0px" y="0px"
	 viewBox="0 0 600 600" style="enable-background:new 0 0 600 600;" xml:space="preserve">
<style type="text/css">
	.st0{fill:#0076BF;fill-opacity:0.5;stroke:#FFFFFF;stroke-width:4;stroke-miterlimit:10;}
	.st1{fill:none;stroke:#FFFFFF;stroke-width:2.5;stroke-miterlimit:10;}
	.st2{fill:#EDF0F2;}
	.st3{font-family:'Roboto-Regular';}
	.st4{font-size:35.9171px;}
	.st5{fill:#FFFFFF;}
	.st6{fill:none;stroke:#FFFFFF;stroke-miterlimit:10;}
	a:hover path { fill: #00B2FF }
</style>
<a>
	<g id="left">
		<path class="st0" d="M196.6,362.2L72.5,486.3c-88.5-108-88.5-264.2,0-372.2l124.1,124.1C173.8,276.2,173.8,324.1,196.6,362.2z"/>
		<g id="Group_44_1_" transform="translate(36.74 345.2)">
			<path id="Path_372_1_" class="st1" d="M-1.6-45.8v-1.6c0.2-0.3,0.3-0.6,0.5-0.6c1.4-0.7,3.1-0.6,4.5,0.2C5-47,6.8-46.7,8.6-47.2
				c9.2-1.7,18.4-3.6,27.8-5.5c2.2-0.3,4.1-1.9,4.7-4.1c1.6-4.7,3.2-9.5,5-14.2c0.7-2.1,2.3-3.7,4.4-4.3l10.2-3.3
				c15.1-5,31-7.2,46.9-6.6c3.6,0.1,7.1,0.7,10.5,1.9c0.8,0.3,1.8,0.8,1.9,1.7v2.4c-0.8,2.2-2.1,4.2-3.9,5.8
				c-6.8,7.6-11.8,16.1-12.6,26.2c-0.5,5-0.3,9.9,4.8,13.3c1.8,1.1,1.6,2.4-0.3,3.3H4.5c-1-1-1.9-2.1-2.6-3.3
				c-0.9-1.8-1.6-3.7-2.1-5.7C-0.8-41.7-1.2-43.8-1.6-45.8z M81.1-64.6c1.8-0.2,3.1-0.2,4.5-0.3c1-0.2,2.1-0.2,3.1-0.3
				c1.8-0.6,2.8-2.5,2.3-4.3c-0.3-1.4-1.8-2.1-3.7-1.7c-2.1,0.3-4,0.5-6.1,0.8c-1.8,0.1-3.1,1.7-2.9,3.4l0,0
				C78.2-65.4,79.5-64.6,81.1-64.6z"/>
			<path id="Path_373_1_" class="st1" d="M78.2-115.1c1.8,0.4,3.8,0.5,5.6,0.9c3.4,0.4,7,0.7,10.4,1.1c0.6,0,1.1,0.3,1.4,0.7
				c1.4,2.3,2.9,4.7,4.5,7.2c-2.3-0.2-4.3-0.2-6.1-0.4c-5.4-0.4-10.8-0.9-16-0.9c-5.5-0.3-10.4,3.3-11.9,8.6c0,0.4-0.2,0.7-0.2,1.3
				c2-0.5,4-0.9,5.7-1.4c4.2-1,8.6-1.5,12.9-1.3c5.2,0.2,10.4,0,15.6,0c0.9-0.1,1.7,0.3,2.2,1.1c0.7,1.6,1.6,3.2,2.5,5.2
				c-19.4-0.4-37.4,4.5-55.5,10.4c0.2-2.3,0.5-4.3,0.7-6.5c0.4-3.2,0.9-6.5,1.3-9.9c0.2-3,1.9-5.7,4.5-7.2
				c5.2-2.7,10.2-5.6,15.4-8.3c1.2-0.3,2.4-0.6,3.6-0.7h3.4V-115.1z"/>
			<path id="Path_375_1_" class="st1" d="M27.9-63.7v-5c-0.2-1.2,0.7-2.3,1.9-2.5c0,0,0,0,0.1,0c2-0.5,4.1-1.1,6.1-1.4
				c1.1-0.1,2.3-0.1,3.4,0.2c0.7,0.1,1.1,0.7,1.1,1.3c0,0.2-0.1,0.3-0.2,0.5c-1.1,2.9-2,5.9-3.1,8.8c-0.6,1.9-2.2,3.3-4.1,3.8
				c-1.3,0.4-2.5,0.5-3.8,0.9c-1.1,0.2-1.6-0.4-1.6-1.4C27.9-60.3,28-62,27.9-63.7z"/>
			<path id="Path_376_1_" class="st1" d="M23.9-62.6v4.7c0.2,1.2-0.6,2.3-1.7,2.5c-0.1,0-0.2,0-0.2,0c-1.4,0.4-2.7,0.5-4.1,0.9
				c-0.9,0.2-1.4-0.2-1.4-1.3V-66c-0.1-1,0.6-1.9,1.6-2l4.3-1.1c1.3-0.2,1.8,0.2,1.8,1.4C23.9-66,23.8-64.3,23.9-62.6z"/>
			<path id="Path_377_1_" class="st1" d="M11.5-60.3v4.7c0.1,1.1-0.7,2.2-1.8,2.3c-0.1,0-0.1,0-0.2,0c-1.1,0.2-2,0.4-3.1,0.5
				C5.5-52.6,5-53.1,5-54v-10.1c0-0.6,0.3-1.1,0.7-1.4c1.4-0.5,2.9-0.9,4.3-1.3c0.9-0.2,1.1,0.7,1.1,1.4
				C11.4-63.7,11.5-62,11.5-60.3z"/>
		</g>
		<text transform="matrix(1 0 0 1 31.6123 359.4258)" class="st2 st3 st4">Booking</text>
	</g>
</a>
<path class="st0" d="M486.3,527.8c-108,88.5-264.2,88.5-372.2,0l124.1-124.1c38,22.8,85.9,22.8,124,0L486.3,527.8z"/>
<text transform="matrix(1 0 0 1 239.4395 565.9912)" class="st5 st3 st4">Trading</text>
<path class="st0" d="M527.8,487.3l-124.1-124c22.8-38,22.8-85.9,0-124l124.1-124.1C616.3,223.2,616.3,379.3,527.8,487.3z"/>
<text transform="matrix(1 0 0 1 453.7451 364.0656)" class="st5 st3 st4">Profle</text>
<path class="st0" d="M486.3,71.1L362.2,195.2c-38-22.8-85.9-22.8-124,0L114.1,71.1C222.1-17.4,378.3-17.4,486.3,71.1z"/>
<text transform="matrix(1 0 0 1 242.0889 165.8593)" class="st5 st3 st4">Traking</text>
<path id="Path_336_1_" class="st6" d="M350.2,480.7c0-26.3-21.3-47.6-47.5-47.6c-12.6,0-24.7,5-33.6,13.9
	c-17.4,17.6-18.5,45.6-2.5,64.5c-1.7,4.1-4.8,7.5-8.6,9.7c-1.8,0.9-2.5,3.1-1.6,4.9c0.5,1,1.4,1.7,2.5,1.9c1.2,0.2,2.5,0.4,3.8,0.4
	c6.2-0.1,12.2-2.1,17.1-5.9c18.5,10.3,41.6,7,56.6-8.1C345.2,505.4,350.3,493.3,350.2,480.7z M280.4,518.6c-0.7-0.4-1.6-0.3-2.2,0.4
	l-0.2,0.2c-5.2,4.2-11.9,6.1-18.5,5.2l0,0c5.6-2.7,8.8-8.1,10.6-12.2c0.2-0.4,0.2-0.9,0-1.3c0-0.4-0.2-0.7-0.4-1.1
	c-15.8-18.2-14-45.8,4.2-61.7c18.2-15.9,45.8-14.1,61.7,4.1c15.9,18.2,14.1,45.8-4.1,61.7C317.3,526.3,296.7,528.2,280.4,518.6z"/>
<path id="Path_337_1_" class="st6" d="M305.7,478.9h-6.1c-2.7,0-4.8-2.2-4.8-4.9s2.2-4.8,4.8-4.8h10.8c1,0,1.8-0.8,1.8-1.8
	s-0.8-1.8-1.8-1.8h-5.9v-4.7c0-1-0.8-1.8-1.8-1.8s-1.8,0.8-1.8,1.8v4.5h-1.3c-4.7,0-8.4,3.8-8.4,8.4c0,4.6,3.8,8.4,8.4,8.4l0,0h6.1
	c2.7,0,4.8,2.2,4.8,4.9c0,2.7-2.2,4.8-4.8,4.8h-11c-1,0-1.8,0.8-1.8,1.8s0.8,1.8,1.8,1.8h6.1v4.7c0,1,0.8,1.8,1.8,1.8
	s1.8-0.8,1.8-1.8v-4.7h1.3c4.6,0,8.4-3.7,8.4-8.3C314.1,482.6,310.3,478.9,305.7,478.9L305.7,478.9z"/>
<path id="Path_338_1_" class="st6" d="M276.3,502.4c-0.7,0.6-0.9,1.7-0.3,2.4c0.3,0.4,0.8,0.6,1.3,0.6c1,0,1.9-0.9,1.8-2
	c0-0.4-0.2-0.8-0.4-1.1C278,501.9,277,501.9,276.3,502.4z"/>
<path id="Path_339_1_" class="st6" d="M277.3,459.3c0.5,0,0.9-0.2,1.3-0.5c0.6-0.7,0.6-1.9-0.2-2.5c-0.7-0.6-1.9-0.6-2.5,0.2
	c-0.6,0.7-0.6,1.9,0.2,2.5C276.5,459.1,276.9,459.3,277.3,459.3z"/>
<path id="Path_340_1_" class="st6" d="M334.8,474.6c0.2,0.9,0.9,1.5,1.8,1.4h0.4c0.9-0.2,1.6-1.1,1.4-2c-0.2-0.9-1-1.5-1.9-1.4
	c-0.9,0-1.7,0.8-1.6,1.7C334.8,474.4,334.8,474.5,334.8,474.6z"/>
<path id="Path_341_1_" class="st6" d="M272.7,497.2c-0.8,0.5-1.1,1.6-0.6,2.4c0,0,0,0.1,0.1,0.1c0.3,0.5,0.8,0.9,1.4,0.9
	c0.4,0,0.7,0,0.9-0.4c0.8-0.5,1.1-1.6,0.6-2.4c0,0,0-0.1-0.1-0.1C274.5,497,273.5,496.7,272.7,497.2L272.7,497.2z"/>
<path id="Path_342_1_" class="st6" d="M317.2,451.4c0.2,0.1,0.5,0.2,0.7,0.2c0.7,0,1.3-0.3,1.6-0.9c0.4-0.9,0.1-1.9-0.8-2.3
	c-0.8-0.4-1.8-0.1-2.3,0.7c-0.5,0.7-0.3,1.7,0.5,2.2C317,451.3,317.1,451.4,317.2,451.4z"/>
<path id="Path_343_1_" class="st6" d="M333.2,468.8c0.3,0.7,0.9,1.1,1.6,1.1c0.3,0,0.5-0.1,0.7-0.2c0.9-0.3,1.4-1.4,1.1-2.3
	c-0.3-0.9-1.4-1.4-2.3-1.1l0,0C333.3,466.7,332.8,467.9,333.2,468.8z"/>
<path id="Path_344_1_" class="st6" d="M311.6,449.3h0.5c0.8,0,1.4-0.5,1.6-1.3c0.2-0.9-0.3-1.9-1.3-2.2c-0.9-0.3-1.9,0.2-2.1,1.1
	v0.1C310.2,448.1,310.7,449,311.6,449.3z"/>
<path id="Path_345_1_" class="st6" d="M272.5,492.4c-0.3-0.9-1.4-1.4-2.3-1.1c-0.9,0.3-1.4,1.4-1.1,2.3l0,0c0.3,0.7,0.9,1.1,1.6,1.1
	c0.3,0,0.5-0.1,0.7-0.2C272.3,494.3,272.8,493.4,272.5,492.4C272.5,492.5,272.5,492.4,272.5,492.4z"/>
<path id="Path_346_1_" class="st6" d="M317.4,509.8c-0.8,0.3-1.2,1.3-0.9,2.1c0,0.1,0.1,0.2,0.1,0.3c0.3,0.6,1,0.9,1.6,0.9
	c0.4,0,0.5,0,0.7-0.2c0.8-0.3,1.2-1.3,0.9-2.1c0-0.1-0.1-0.2-0.1-0.3c-0.4-0.8-1.4-1.2-2.2-0.8L317.4,509.8z"/>
<path id="Path_347_1_" class="st6" d="M337.1,478.9c-1,0-1.8,0.8-1.8,1.8c-0.1,0.9,0.7,1.7,1.6,1.8c0.1,0,0.1,0,0.2,0
	c1,0,1.8-0.8,1.8-1.8C338.9,479.7,338.1,479,337.1,478.9z"/>
<path id="Path_348_1_" class="st6" d="M336.8,485.2c-0.9-0.1-1.8,0.5-1.9,1.5c-0.1,0.9,0.5,1.8,1.4,1.9h0.4c0.9,0,1.6-0.6,1.8-1.4
	C338.4,486.2,337.7,485.3,336.8,485.2z"/>
<path id="Path_349_1_" class="st6" d="M269.4,488.8c0.9-0.1,1.6-1,1.4-2c-0.1-0.9-1-1.6-2-1.4c-0.9,0.1-1.6,1-1.4,2l0,0
	c0.2,0.9,0.9,1.5,1.8,1.4H269.4z"/>
<path id="Path_350_1_" class="st6" d="M322.4,454.7c0.3,0.2,0.7,0.3,1.1,0.4c0.6,0,1.1-0.2,1.4-0.7c0.6-0.8,0.4-1.9-0.4-2.5
	s-1.9-0.4-2.5,0.4c-0.6,0.7-0.6,1.7,0.1,2.3C322.2,454.5,322.3,454.6,322.4,454.7z"/>
<path id="Path_351_1_" class="st6" d="M332.8,497.2c-0.8-0.5-2-0.3-2.5,0.5c-0.5,0.8-0.3,2,0.5,2.5l0,0c0.4,0.2,0.5,0.4,0.9,0.4
	c0.6,0,1.1-0.4,1.4-0.9c0.6-0.6,0.6-1.6,0-2.3C333.1,497.4,332.9,497.3,332.8,497.2z"/>
<path id="Path_352_1_" class="st6" d="M335.3,491.3c-0.9-0.3-2,0.1-2.3,1.1c-0.3,0.9,0.1,2,1.1,2.3c0.2,0,0.4,0.2,0.7,0.2
	c0.7,0.1,1.4-0.4,1.6-1.1C336.8,492.8,336.3,491.7,335.3,491.3z"/>
<path id="Path_353_1_" class="st6" d="M270.1,480.7L270.1,480.7c0.1-0.9-0.7-1.7-1.6-1.8c-0.1,0-0.1,0-0.2,0c-1,0-1.8,0.8-1.8,1.8
	l0,0c0,1,0.8,1.8,1.8,1.8S270.1,481.7,270.1,480.7z"/>
<path id="Path_354_1_" class="st6" d="M268.7,476h0.4c0.9,0,1.6-0.6,1.8-1.4c0.2-0.9-0.4-1.8-1.3-2c-0.1,0-0.1,0-0.2,0
	c-0.9-0.2-1.8,0.4-2,1.3c0,0.1,0,0.1,0,0.2c-0.3,0.8,0.2,1.7,1,1.9C268.5,476,268.6,476,268.7,476z"/>
<path id="Path_355_1_" class="st6" d="M270.1,469.9c0.2,0,0.4,0.2,0.7,0.2c0.7,0.1,1.4-0.4,1.6-1.1c0.3-0.9-0.1-2-1.1-2.3
	c-0.9-0.3-2,0.1-2.3,1.1C268.8,468.7,269.3,469.6,270.1,469.9z"/>
<path id="Path_356_1_" class="st6" d="M272.7,464c0.4,0.2,0.5,0.4,0.9,0.4c0.6,0,1.1-0.4,1.4-0.9c0.5-0.9,0.3-1.9-0.5-2.5
	c-0.9-0.5-1.9-0.3-2.5,0.5C271.5,462.4,271.8,463.5,272.7,464z"/>
<path id="Path_357_1_" class="st6" d="M299.8,513c-1,0-1.8,0.7-2,1.6c-0.1,1,0.6,1.9,1.6,2l0,0h0.2c0.9,0,1.7-0.7,1.8-1.6
	C301.4,514,300.7,513.2,299.8,513z"/>
<path id="Path_358_1_" class="st6" d="M293.8,511.9c-0.9-0.3-1.9,0.2-2.1,1.1v0.1c-0.2,0.9,0.3,1.9,1.3,2.2h0.5
	c0.8,0,1.4-0.5,1.6-1.3c0.3-0.9-0.2-1.8-1-2.1C294,512,293.9,512,293.8,511.9z"/>
<path id="Path_359_1_" class="st6" d="M288.3,509.8c-0.9-0.4-1.9-0.1-2.3,0.8c-0.4,0.8-0.1,1.8,0.7,2.3c0.2,0.1,0.5,0.2,0.7,0.2
	c0.7,0,1.3-0.3,1.6-0.9c0.5-0.7,0.3-1.7-0.5-2.2C288.5,509.9,288.4,509.8,288.3,509.8z"/>
<path id="Path_360_1_" class="st6" d="M311.6,511.9c-0.9,0.3-1.4,1.2-1.3,2.2c0.2,0.7,0.9,1.2,1.6,1.3h0.5c0.9-0.3,1.4-1.2,1.3-2.2
	c-0.1-0.8-0.8-1.5-1.7-1.4C311.9,511.8,311.8,511.9,311.6,511.9z"/>
<path id="Path_361_1_" class="st6" d="M287.4,451.6c0.3,0,0.5,0,0.7-0.2c0.8-0.3,1.2-1.3,0.9-2.1c0-0.1-0.1-0.2-0.1-0.3
	c-0.3-0.8-1.3-1.2-2.1-0.9c-0.1,0-0.2,0.1-0.3,0.1c-0.8,0.5-1.1,1.5-0.7,2.3C286.1,451.2,286.7,451.6,287.4,451.6z"/>
<path id="Path_362_1_" class="st6" d="M283.3,506.7c-0.8-0.6-1.9-0.4-2.5,0.4c-0.6,0.8-0.4,1.9,0.4,2.5c0.3,0.2,0.7,0.3,1.1,0.4
	c0.6,0,1.1-0.2,1.4-0.7C284.2,508.4,284,507.4,283.3,506.7z"/>
<path id="Path_363_1_" class="st6" d="M328.2,459.3c1,0,1.9-0.9,1.8-2c0-0.4-0.2-0.8-0.4-1.1c-0.6-0.7-1.8-0.8-2.5-0.2
	s-0.8,1.8-0.2,2.5C327.1,459.1,327.6,459.4,328.2,459.3z"/>
<path id="Path_364_1_" class="st6" d="M305.7,448.2L305.7,448.2c1,0,1.8-0.7,2-1.6c0-1-0.7-1.8-1.6-2c-1-0.1-1.9,0.6-2,1.6l0,0
	C304,447.2,304.7,448.1,305.7,448.2z"/>
<path id="Path_365_1_" class="st6" d="M322.4,506.6c-0.7,0.6-0.9,1.7-0.4,2.5c0.3,0.5,0.9,0.7,1.4,0.7c0.4,0,0.7-0.2,1.1-0.4
	c0.7-0.6,0.9-1.7,0.4-2.5C324.3,506.2,323.2,506,322.4,506.6z"/>
<path id="Path_366_1_" class="st6" d="M326.9,502.4c-0.6,0.7-0.6,1.8,0.1,2.5c0,0,0,0,0.1,0c0.7,0.7,1.8,0.7,2.5,0.1
	c0,0,0,0,0.1-0.1c0.6-0.8,0.5-2-0.3-2.6C328.6,501.8,327.6,501.8,326.9,502.4z"/>
<path id="Path_367_1_" class="st6" d="M305.9,513c-1,0.2-1.6,1-1.6,2c0.1,0.9,0.9,1.6,1.8,1.6h0.2c1-0.2,1.6-1,1.6-2
	C307.6,513.7,306.8,513.1,305.9,513z"/>
<path id="Path_368_1_" class="st6" d="M293.3,449.4h0.5c0.9-0.3,1.5-1.2,1.3-2.2c-0.3-1-1.3-1.6-2.3-1.4c-0.9,0.3-1.4,1.2-1.3,2.2
	C291.8,448.8,292.5,449.4,293.3,449.4z"/>
<path id="Path_369_1_" class="st6" d="M299.6,448.2L299.6,448.2c1-0.1,1.8-0.9,1.8-2c-0.2-1-1-1.6-2-1.6c-1,0.1-1.7,1-1.6,1.9l0,0
	C297.9,447.5,298.7,448.1,299.6,448.2z"/>
<path id="Path_370_1_" class="st6" d="M331.9,464.4c0.4,0,0.7,0,0.9-0.4c0.8-0.5,1.1-1.7,0.5-2.5c-0.5-0.8-1.7-1.1-2.5-0.5
	c-0.8,0.5-1.1,1.7-0.5,2.5C330.7,464,331.3,464.3,331.9,464.4z"/>
<path id="Path_371_1_" class="st6" d="M282,455c0.4,0,0.7-0.2,1.1-0.4c0.8-0.6,1-1.7,0.4-2.5c-0.6-0.8-1.7-1-2.5-0.4l0,0
	c-0.7,0.6-0.9,1.7-0.4,2.5C280.9,454.8,281.4,455,282,455z"/>
<path id="user_1_" class="st5" d="M551,273.3c0-27.3-22.1-49.4-49.3-49.4c-27.3,0-49.4,22.1-49.4,49.3c0,13.9,5.8,27.1,16,36.5l0,0
	l1.6,1.4c0.1,0.1,0.2,0.2,0.3,0.2c0.9,0.7,1.7,1.4,2.6,2c0.3,0.2,0.6,0.4,0.9,0.6c1,0.7,1.9,1.3,2.9,1.9c0.2,0.1,0.4,0.3,0.7,0.4
	c1.1,0.6,2.2,1.2,3.4,1.8l0.3,0.1c3.8,1.8,7.8,3,11.9,3.8l0.3,0.1c1.3,0.2,2.6,0.4,4,0.5c0.2,0,0.3,0,0.5,0c1.3,0.1,2.7,0.2,4,0.2
	s2.7-0.1,4-0.2h0.5c1.3-0.1,2.6-0.3,3.9-0.5l0.3-0.1c4.1-0.7,8-2,11.8-3.7c0.1-0.1,0.3-0.1,0.4-0.2c1.1-0.5,2.2-1.1,3.3-1.7
	c0.3-0.1,0.5-0.3,0.8-0.5c1-0.6,1.9-1.2,2.8-1.8c0.3-0.2,0.7-0.5,1-0.7c0.8-0.6,1.6-1.2,2.3-1.8c0.2-0.1,0.3-0.3,0.5-0.4l1.6-1.4
	l0,0C545.1,300.5,551,287.3,551,273.3z M455.8,273.3c0-25.3,20.5-45.8,45.8-45.8s45.8,20.5,45.8,45.8c0,13.1-5.6,25.6-15.4,34.3
	c-0.5-0.4-1-0.7-1.6-1l-15.2-7.6c-1.4-0.7-2.2-2.1-2.2-3.6v-5.3c0.4-0.4,0.7-0.9,1.1-1.5c2-2.8,3.6-5.9,4.7-9.2
	c2.3-1.1,3.7-3.4,3.7-5.9v-6.4c0-1.6-0.6-3.1-1.6-4.3v-8.4c0.3-3.8-0.9-7.6-3.4-10.5c-3.3-3.8-8.7-5.7-15.9-5.7s-12.6,1.9-15.9,5.7
	c-2.5,2.9-3.7,6.7-3.4,10.5v8.4c-1,1.2-1.6,2.7-1.6,4.3v6.4c0,2,0.9,3.8,2.4,5.1c1.1,4.1,3,8,5.6,11.5v5.2c0,1.5-0.8,2.8-2.1,3.5
	l-14.2,7.7c-0.5,0.3-0.9,0.5-1.4,0.9C461.3,298.8,455.8,286.3,455.8,273.3z M528.5,310.4c-0.6,0.5-1.3,0.9-1.9,1.3
	c-0.3,0.2-0.6,0.4-0.9,0.6c-0.8,0.5-1.7,1-2.6,1.5c-0.2,0.1-0.4,0.2-0.6,0.3c-2,1-4.1,1.9-6.3,2.7l-0.2,0.1c-1.1,0.4-2.3,0.7-3.4,1
	l0,0c-1.2,0.3-2.3,0.5-3.5,0.7H509c-1.1,0.2-2.2,0.3-3.4,0.4c-0.2,0-0.4,0-0.6,0c-1.1,0.1-2.2,0.1-3.4,0.1c-1.1,0-2.3-0.1-3.4-0.1
	c-0.2,0-0.4,0-0.6,0c-1.1-0.1-2.3-0.2-3.4-0.4H494c-2.4-0.4-4.7-1-7-1.7l-0.2-0.1c-1.1-0.4-2.2-0.8-3.3-1.3l0,0
	c-1-0.4-2.1-0.9-3.1-1.5c-0.1-0.1-0.3-0.1-0.4-0.2c-0.9-0.5-1.8-1-2.7-1.6c-0.3-0.2-0.5-0.3-0.8-0.5c-0.8-0.5-1.6-1.1-2.4-1.7
	c-0.1-0.1-0.2-0.1-0.2-0.2l0.2-0.1l14.2-7.7c2.4-1.3,4-3.9,4-6.7v-6.5l-0.4-0.5c-2.6-3.3-4.4-7.1-5.4-11.2l-0.2-0.7l-0.6-0.4
	c-0.9-0.5-1.4-1.5-1.4-2.5v-6.4c0-0.8,0.4-1.6,1-2.2l0.6-0.5v-10v-0.2c-0.2-2.8,0.7-5.7,2.5-7.8c2.6-3,7-4.5,13.2-4.5
	s10.6,1.5,13.2,4.4c1.8,2.2,2.7,5,2.5,7.9v10.2l0.6,0.5c0.6,0.6,1,1.4,1,2.2v6.4c0,1.3-0.9,2.4-2.1,2.8l-0.9,0.3l-0.3,0.9
	c-1,3.2-2.5,6.3-4.5,9c-0.5,0.7-0.9,1.3-1.3,1.7l-0.4,0.5v6.6c0,2.9,1.6,5.5,4.2,6.8l15.2,7.6c0.1,0,0.2,0.1,0.3,0.1
	C528.9,310.1,528.7,310.3,528.5,310.4z"/>
<g id="placeholder_1_" transform="translate(149 229)">
	<path id="Path_332_1_" class="st2" d="M152.1-163.7c6.9,0,12.6-5.6,12.6-12.6s-5.6-12.6-12.6-12.6s-12.6,5.6-12.6,12.6
		C139.6-169.3,145.2-163.7,152.1-163.7z M152.1-185.2c5,0,9,4,9,9s-4,9-9,9s-9-4-9-9C143.2-181.2,147.2-185.2,152.1-185.2z"/>
	<path id="Path_333_1_" class="st2" d="M151.8-112.1l27.6-39.8c10.3-13.8,8.8-36.4-3.2-48.5c-13.4-13.4-35.3-13.5-48.7,0l0,0
		c-12,12-13.5,34.7-3.2,48.4L151.8-112.1z M130-197.8c12-12,31.6-12,43.6,0l0,0c10.9,10.9,12.2,31.3,2.8,43.8l-24.6,35.6L127.1-154
		C117.8-166.5,119.1-186.9,130-197.8z"/>
	<path id="Path_334_1_" class="st2" d="M173.9-133.2c-1-0.1-1.9,0.6-2,1.6s0.6,1.8,1.5,2c18.9,2.2,28.9,8.2,28.9,11.7
		c0,4.9-19.1,11.7-50.3,11.7s-50.3-6.8-50.3-11.7c0-3.5,10.1-9.5,28.9-11.7c1-0.1,1.7-1,1.5-2c-0.1-1-1-1.6-2-1.5
		c-18.9,2.2-32.1,8.5-32.1,15.3c0,7.6,18.5,15.3,53.9,15.3s53.9-7.7,53.9-15.3C206-124.7,192.8-130.9,173.9-133.2z"/>
</g>
</svg>
